<?xml version="1.0" standalone="no"?>
<!DOCTYPE svg PUBLIC "-//W3C//DTD SVG 20010904//EN"
 "http://www.w3.org/TR/2001/REC-SVG-20010904/DTD/svg10.dtd">
<svg version="1.0" xmlns="http://www.w3.org/2000/svg"
 width="70" height="65" viewBox="0 0 1280.000000 676.000000"
 preserveAspectRatio="xMidYMid meet">
<metadata>
Created by potrace 1.15, written by Peter Selinger 2001-2017
</metadata>
<g transform="translate(0.000000,676.000000) scale(0.100000,-0.100000)"
fill="#C70101" stroke="none">
<path d="M7505 6524 c-347 -49 -496 -100 -830 -284 -221 -122 -345 -173 -466
-193 -87 -15 -103 -15 -184 -1 -115 20 -234 70 -449 188 -258 143 -377 189
-617 242 -169 36 -479 46 -657 19 -333 -50 -703 -227 -941 -451 -175 -165
-356 -466 -459 -764 -168 -489 -161 -995 23 -1592 30 -97 55 -179 55 -182 0
-3 -40 -6 -89 -6 l-89 0 -92 96 -92 97 -89 -5 c-49 -3 -89 -3 -89 1 0 30 -78
680 -106 876 -36 259 -64 375 -108 442 -14 21 -28 50 -31 65 -9 37 -22 46
-102 68 -84 25 -115 25 -141 3 -20 -17 -23 -51 -61 -693 -23 -371 -44 -698
-47 -726 l-5 -52 -62 5 c-34 2 -82 0 -107 -4 -45 -9 -58 -21 -126 -122 l-21
-31 -63 50 c-35 28 -74 53 -88 57 -13 3 -61 3 -106 -1 -72 -6 -90 -12 -170
-56 l-90 -50 -375 0 c-367 0 -574 -10 -612 -31 -14 -7 -19 -21 -19 -52 0 -63
9 -70 95 -78 56 -6 83 -13 99 -27 22 -21 73 -53 116 -74 18 -8 143 -12 450
-12 l425 -1 69 28 c37 15 79 27 91 27 26 0 141 -58 227 -113 55 -35 57 -38 63
-89 14 -129 92 -1327 88 -1361 -4 -25 0 -46 11 -63 16 -23 23 -25 84 -23 49 1
80 -4 115 -20 27 -12 57 -21 66 -21 33 0 61 44 72 111 11 72 72 829 89 1104 7
99 15 209 18 245 l7 65 40 -3 c26 -2 49 -12 66 -28 24 -23 43 -31 127 -51 25
-6 80 45 142 132 19 27 47 56 61 64 24 13 33 12 95 -9 58 -19 93 -23 214 -26
80 -1 154 -4 164 -6 14 -3 50 -62 116 -184 194 -363 418 -693 716 -1057 545
-665 1095 -1111 1789 -1452 94 -46 209 -99 257 -119 48 -20 104 -45 125 -56
21 -11 43 -20 50 -20 16 0 419 201 568 283 193 106 424 256 620 402 635 473
1307 1262 1710 2010 l92 170 44 3 c24 2 70 15 103 29 76 32 95 24 182 -73 82
-91 146 -134 201 -134 23 0 46 -6 53 -15 27 -32 42 -122 61 -360 11 -137 31
-392 44 -565 27 -337 30 -360 51 -402 12 -24 102 -78 129 -78 15 0 93 41 105
55 12 14 70 799 89 1200 11 218 15 264 28 310 5 17 12 13 52 -33 46 -52 53
-56 148 -79 28 -7 53 13 138 110 75 86 91 91 175 62 36 -13 97 -14 369 -11
179 2 562 5 850 5 l523 1 37 39 c20 21 42 46 49 55 8 10 28 16 57 16 69 0 75
5 75 64 0 28 -4 57 -9 65 -6 9 -35 18 -68 22 -32 4 -437 8 -900 8 l-842 1 -71
84 c-39 46 -77 86 -84 89 -35 14 -174 19 -195 7 -13 -6 -24 -10 -26 -8 -2 2
-28 203 -59 448 -51 412 -118 897 -132 963 -3 15 -17 35 -31 44 -23 15 -30 15
-100 -2 -42 -11 -84 -26 -95 -35 -32 -26 -41 -119 -88 -945 -11 -198 -26 -393
-32 -433 l-11 -73 -31 8 c-17 4 -65 8 -106 8 l-74 0 -49 -80 c-27 -44 -59 -88
-72 -98 l-24 -17 -48 70 c-51 74 -65 83 -155 95 -28 3 -56 2 -68 -5 -28 -15
-27 -6 20 140 88 276 132 610 120 900 -9 195 -19 273 -55 430 -74 322 -259
687 -464 917 -121 136 -320 279 -525 377 -252 122 -406 157 -691 161 -110 2
-213 1 -230 -1z m525 -818 c263 -61 514 -199 701 -385 282 -282 470 -758 469
-1189 -1 -179 -38 -439 -86 -604 l-17 -58 -440 0 c-373 0 -444 2 -470 15 -19
9 -56 49 -89 94 -44 61 -64 81 -88 86 -52 12 -97 -3 -127 -40 -21 -26 -31 -32
-44 -24 -23 12 -24 17 -64 384 -50 455 -100 788 -140 925 -18 63 -36 134 -40
158 -13 78 -95 96 -148 32 -33 -39 -41 -110 -77 -710 -40 -671 -51 -777 -81
-796 -5 -3 -21 6 -33 19 -26 28 -94 51 -120 41 -10 -4 -39 -39 -66 -79 -64
-94 -75 -105 -113 -105 -24 0 -51 16 -112 65 -109 89 -120 90 -242 21 l-99
-56 -459 1 c-253 0 -495 2 -537 5 l-78 6 -95 89 c-89 83 -97 89 -137 89 -24 0
-55 -7 -70 -14 -15 -8 -30 -11 -33 -6 -5 7 -14 79 -70 540 -37 298 -82 595
-101 655 -32 100 -105 236 -138 256 -44 27 -102 25 -120 -3 -11 -18 -24 -185
-55 -723 -46 -784 -49 -825 -64 -825 -15 0 -47 31 -47 45 0 36 -86 64 -145 47
-24 -7 -39 -25 -81 -101 -28 -51 -57 -98 -63 -104 -10 -9 -32 9 -100 81 -83
88 -90 92 -130 92 -56 0 -94 -17 -170 -79 -73 -59 -106 -65 -122 -23 -20 52
-61 257 -75 382 -46 410 32 781 239 1133 143 242 299 387 554 516 125 63 307
125 433 146 124 22 382 22 510 1 216 -35 359 -86 584 -207 181 -98 276 -136
381 -155 144 -25 269 11 542 158 353 189 557 242 908 233 123 -3 184 -10 265
-29z m-1247 -2442 c18 -9 55 -33 82 -54 62 -46 117 -74 171 -89 42 -11 56 -28
75 -91 7 -27 99 -1250 99 -1332 0 -39 104 -118 155 -118 31 0 62 47 74 111 12
71 72 800 96 1168 17 273 23 325 40 348 11 14 14 10 29 -34 19 -59 83 -133
114 -133 12 0 32 -5 46 -11 22 -10 30 -8 61 15 19 15 60 60 90 101 30 41 63
79 73 84 21 11 70 2 132 -25 29 -12 101 -14 452 -12 414 3 418 3 412 -17 -33
-108 -166 -359 -302 -569 -336 -520 -824 -1049 -1261 -1368 -216 -158 -444
-293 -739 -439 l-263 -131 -157 67 c-551 236 -1033 563 -1405 952 l-97 102 0
158 c0 87 5 212 10 278 5 66 14 181 20 255 5 74 17 257 25 405 8 149 19 294
25 323 14 64 35 69 45 11 9 -50 88 -139 123 -139 12 0 31 -6 42 -12 31 -20 67
8 133 103 32 46 67 88 78 93 15 7 41 2 97 -17 l77 -26 565 2 565 2 60 27 c70
31 114 34 158 12z m-2704 -78 c58 -78 182 -163 220 -151 29 9 48 -18 55 -82 7
-62 40 -490 51 -658 l7 -100 -104 140 c-149 200 -285 418 -388 623 -109 216
-109 217 -73 227 15 3 42 18 60 31 73 55 115 48 172 -30z"/>
</g>
</svg>
